<?xml version="1.0" standalone="no"?>
<!DOCTYPE svg PUBLIC "-//W3C//DTD SVG 20010904//EN"
 "http://www.w3.org/TR/2001/REC-SVG-20010904/DTD/svg10.dtd">
<svg version="1.0" xmlns="http://www.w3.org/2000/svg"
 width="32.000000pt" height="32.000000pt" viewBox="0 0 32.000000 32.000000"
 preserveAspectRatio="xMidYMid meet">

<g transform="translate(0.000000,32.000000) scale(0.100000,-0.100000)"
fill="#000000" stroke="none">
<path d="M4 309 c-3 -6 24 -41 62 -80 l68 -69 -69 -70 c-55 -55 -67 -72 -57
-82 10 -10 27 2 82 57 l70 69 70 -69 c55 -55 72 -67 82 -57 10 10 -2 27 -57
82 l-69 70 69 70 c55 55 67 72 57 82 -10 10 -27 -2 -82 -57 l-70 -69 -68 67
c-71 70 -77 74 -88 56z"/>
</g>
</svg>
