<?xml version="1.0" standalone="no"?>
<!DOCTYPE svg PUBLIC "-//W3C//DTD SVG 20010904//EN"
 "http://www.w3.org/TR/2001/REC-SVG-20010904/DTD/svg10.dtd">
<svg version="1.0" xmlns="http://www.w3.org/2000/svg"
 width="512.000000pt" height="512.000000pt" viewBox="0 0 512.000000 512.000000"
 preserveAspectRatio="xMidYMid meet">

<g transform="translate(0.000000,512.000000) scale(0.100000,-0.100000)"
fill="#000000" stroke="none">
<path d="M2260 4884 c-889 -121 -1627 -724 -1915 -1564 -197 -576 -162 -1212
98 -1762 127 -268 334 -547 545 -733 453 -400 985 -605 1572 -605 751 0 1449
354 1892 960 450 616 571 1416 323 2140 -202 588 -630 1072 -1190 1345 -228
111 -479 186 -738 220 -147 19 -443 18 -587 -1z m-485 -1265 c34 -9 99 -69
413 -382 l372 -371 373 371 c313 313 378 373 412 382 64 17 108 13 166 -16 92
-47 137 -150 109 -253 -11 -40 -50 -83 -383 -417 l-371 -373 371 -373 c333
-334 372 -377 383 -417 44 -167 -103 -314 -270 -270 -40 11 -83 50 -417 383
l-373 371 -372 -371 c-335 -333 -378 -372 -418 -383 -167 -44 -314 103 -270
270 11 40 50 83 383 418 l371 372 -371 373 c-333 334 -372 377 -383 417 -27
102 16 204 109 252 57 30 102 35 166 17z"/>
</g>
</svg>
