<?xml version="1.0" standalone="no"?>
<!DOCTYPE svg PUBLIC "-//W3C//DTD SVG 20010904//EN"
 "http://www.w3.org/TR/2001/REC-SVG-20010904/DTD/svg10.dtd">
<svg version="1.0" xmlns="http://www.w3.org/2000/svg"
 width="64.000000pt" height="64.000000pt" viewBox="0 0 64.000000 64.000000"
 preserveAspectRatio="xMidYMid meet">

<g transform="translate(0.000000,64.000000) scale(0.100000,-0.100000)"
fill="#000000" stroke="none">
<path d="M331 623 c-54 -28 -73 -62 -79 -142 l-5 -70 -46 -3 -46 -3 -3 -57 -3
-58 51 0 50 0 0 -145 0 -145 60 0 60 0 0 145 0 145 49 0 48 0 7 46 c10 76 11
74 -49 74 l-55 0 0 49 c0 58 10 69 70 73 l45 3 0 50 0 50 -60 3 c-42 2 -70 -3
-94 -15z"/>
</g>
</svg>
