<?xml version="1.0" standalone="no"?>
<!DOCTYPE svg PUBLIC "-//W3C//DTD SVG 20010904//EN"
 "http://www.w3.org/TR/2001/REC-SVG-20010904/DTD/svg10.dtd">
<svg version="1.0" xmlns="http://www.w3.org/2000/svg"
 width="512.000000pt" height="512.000000pt" viewBox="0 0 512.000000 512.000000"
 preserveAspectRatio="xMidYMid meet">

<g transform="translate(0.000000,512.000000) scale(0.100000,-0.100000)"
fill="#000000" stroke="none">
<path d="M1918 3083 c-94 -101 -202 -295 -260 -467 -28 -81 -31 -104 -32 -206
0 -95 4 -125 22 -171 44 -111 110 -177 221 -221 47 -19 76 -22 186 -22 125 -1
132 0 195 30 114 54 181 128 220 245 18 54 21 81 18 169 -3 93 -7 113 -34 170
-18 36 -47 83 -67 106 -40 45 -132 99 -189 109 -21 4 -38 10 -38 14 0 13 132
171 171 205 l41 35 -33 5 c-30 5 -361 46 -372 46 -2 0 -24 -21 -49 -47z"/>
<path d="M2897 3050 c-110 -139 -206 -329 -248 -492 -28 -107 -23 -243 12
-331 58 -149 208 -237 405 -237 133 0 233 39 316 121 86 86 124 202 115 347
-4 66 -11 96 -39 155 -55 114 -133 181 -248 210 l-50 13 63 79 c35 44 85 99
111 122 l47 42 -33 5 c-45 7 -362 46 -376 46 -7 0 -40 -36 -75 -80z"/>
</g>
</svg>
