<?xml version="1.0" standalone="no"?>
<!DOCTYPE svg PUBLIC "-//W3C//DTD SVG 20010904//EN"
 "http://www.w3.org/TR/2001/REC-SVG-20010904/DTD/svg10.dtd">
<svg version="1.0" xmlns="http://www.w3.org/2000/svg"
 width="512.000000pt" height="512.000000pt" viewBox="0 0 512.000000 512.000000"
 preserveAspectRatio="xMidYMid meet">

<g transform="translate(0.000000,512.000000) scale(0.100000,-0.100000)"
fill="#000000" stroke="none">
<path d="M2410 4214 c-192 -21 -250 -30 -345 -51 -317 -70 -630 -218 -867
-410 l-77 -63 -555 0 -555 0 145 -230 c80 -127 147 -236 149 -243 3 -6 -21
-48 -53 -93 -108 -151 -187 -334 -228 -529 -28 -131 -25 -383 4 -522 100 -468
435 -850 878 -1004 273 -95 602 -97 868 -7 189 64 365 170 508 307 l47 44 19
-44 c11 -24 59 -134 106 -244 48 -110 90 -203 94 -207 5 -5 23 27 41 70 18 42
67 154 108 249 l75 172 82 -71 c148 -129 288 -211 466 -271 150 -51 268 -70
440 -70 488 1 921 256 1169 688 83 145 136 302 162 484 16 113 6 349 -20 462
-39 170 -129 372 -222 496 -21 29 -39 57 -39 63 0 6 66 115 146 243 81 127
149 238 151 244 4 10 -112 13 -562 13 l-567 0 -54 49 c-75 68 -221 168 -334
229 -218 116 -449 189 -715 228 -99 14 -398 26 -465 18z m464 -318 c203 -35
374 -90 540 -173 l100 -50 -75 -18 c-94 -23 -212 -66 -292 -106 -188 -96 -404
-287 -513 -455 -84 -131 -84 -131 -90 -117 -3 6 -31 51 -64 100 -64 98 -167
216 -251 289 -153 131 -372 244 -552 284 -32 8 -60 17 -63 21 -7 12 194 105
321 147 125 42 276 76 405 92 104 12 427 4 534 -14z m-1260 -536 c464 -125
786 -541 786 -1016 0 -400 -227 -765 -585 -939 -129 -64 -219 -90 -361 -107
-297 -34 -615 78 -836 295 -269 263 -377 647 -285 1008 97 377 399 675 772
762 109 26 111 26 275 22 118 -3 174 -9 234 -25z m2397 1 c381 -103 661 -385
760 -764 27 -104 37 -306 19 -415 -115 -718 -897 -1105 -1538 -761 -602 323
-734 1143 -264 1641 148 156 332 259 552 309 115 26 358 21 471 -10z"/>
<path d="M1172 3030 c-233 -61 -421 -241 -500 -478 -22 -67 -26 -94 -26 -207
0 -140 12 -199 64 -306 91 -188 241 -315 450 -380 59 -18 99 -23 185 -24 128
0 190 13 300 65 247 115 399 338 413 606 6 130 -14 227 -75 354 -85 177 -262
320 -459 370 -102 26 -252 26 -352 0z m350 -317 c138 -65 227 -195 236 -343 7
-126 -28 -219 -117 -313 -88 -93 -228 -140 -350 -119 -217 38 -365 221 -348
432 12 164 105 289 264 356 50 21 71 24 153 22 83 -3 104 -7 162 -35z"/>
<path d="M1280 2478 c-107 -55 -112 -197 -10 -265 95 -65 234 10 234 124 -1
125 -115 197 -224 141z"/>
<path d="M3592 3035 c-139 -30 -299 -132 -394 -249 -102 -127 -151 -270 -152
-441 -1 -131 16 -204 76 -325 58 -120 186 -247 308 -308 118 -59 193 -76 325
-76 127 0 202 18 311 71 186 90 337 281 379 479 95 450 -240 867 -694 863 -53
0 -124 -7 -159 -14z m284 -302 c130 -43 225 -140 269 -272 27 -83 18 -207 -22
-292 -120 -257 -458 -316 -659 -115 -218 218 -132 572 165 681 52 19 187 18
247 -2z"/>
<path d="M3692 2483 c-147 -72 -96 -293 68 -293 162 0 214 216 70 290 -47 24
-93 25 -138 3z"/>
</g>
</svg>
